inDegrees=no
num_controls=7
num_derivatives=13
num_iterations=178
num_multipliers=7
num_parameters=0
num_slacks=7
num_states=26
objective=0.499183
objective_accelerations=0.011929
objective_balance=0.003613
objective_effort=0.016334
objective_height=0.457364
objective_ligament=0.009943
solver_duration=2464.423277
status=Solve_Succeeded
success=true
DataType=double
version=3
OpenSimVersion=4.5
endheader
time	/jointset/ground_pelvis/pelvis_tilt/value	/jointset/ground_pelvis/pelvis_tx/value	/jointset/ground_pelvis/pelvis_ty/value	/jointset/hip_l/hip_flexion_l/value	/jointset/hip_l/hip_adduction_l/value	/jointset/hip_l/hip_rotation_l/value	/jointset/back/lumbar_extension/value	/jointset/patellofemoral_l/patellar_flexion_l/value	/jointset/knee_l/knee_flexion_l/value	/jointset/knee_l/knee_adduction_l/value	/jointset/knee_l/knee_rotation_l/value	/jointset/ankle_l/ankle_angle_l/value	/jointset/subtalar_l/subtalar_angle_l/value	/jointset/ground_pelvis/pelvis_tilt/speed	/jointset/ground_pelvis/pelvis_tx/speed	/jointset/ground_pelvis/pelvis_ty/speed	/jointset/hip_l/hip_flexion_l/speed	/jointset/hip_l/hip_adduction_l/speed	/jointset/hip_l/hip_rotation_l/speed	/jointset/back/lumbar_extension/speed	/jointset/patellofemoral_l/patellar_flexion_l/speed	/jointset/knee_l/knee_flexion_l/speed	/jointset/knee_l/knee_adduction_l/speed	/jointset/knee_l/knee_rotation_l/speed	/jointset/ankle_l/ankle_angle_l/speed	/jointset/subtalar_l/subtalar_angle_l/speed	/forceset/tau_hip_flexion_l	/forceset/tau_hip_adduction_l	/forceset/tau_hip_rotation_l	/forceset/tau_knee_flexion_l	/forceset/tau_ankle_angle_l	/forceset/tau_subtalar_angle_l	/forceset/tau_lumbar_extension	lambda_cid13_p0	lambda_cid13_p1	lambda_cid13_p2	lambda_cid13_p3	lambda_cid13_p4	lambda_cid13_p5	lambda_cid14_p0	/jointset/ground_pelvis/pelvis_tilt/accel	/jointset/ground_pelvis/pelvis_tx/accel	/jointset/ground_pelvis/pelvis_ty/accel	/jointset/hip_l/hip_flexion_l/accel	/jointset/hip_l/hip_adduction_l/accel	/jointset/hip_l/hip_rotation_l/accel	/jointset/back/lumbar_extension/accel	/jointset/patellofemoral_l/patellar_flexion_l/accel	/jointset/knee_l/knee_flexion_l/accel	/jointset/knee_l/knee_adduction_l/accel	/jointset/knee_l/knee_rotation_l/accel	/jointset/ankle_l/ankle_angle_l/accel	/jointset/subtalar_l/subtalar_angle_l/accel	gamma_cid13_p0	gamma_cid13_p1	gamma_cid13_p2	gamma_cid13_p3	gamma_cid13_p4	gamma_cid13_p5	gamma_cid14_p0
1	0.1023425362934216	-0.01244439939209272	0.9143467388884389	0.3119144274778533	-0.2985963861861519	-0.2629253058709908	-0.9599295562588239	0.3672304148671268	0.3672304148672066	-0.1456857026869446	-0.1745246838226741	-0.01741375642409725	-0.008778708563897505	0.1212788898174119	0.03625890311530126	0.03234276035746367	-0.2772041161572283	0.02382598526857848	-0.06009819568314084	0.001058018748368613	-0.1544788548466993	-0.154478854846696	0.007310845254072097	1.795080576746995e-06	0.0002293106745235051	0.02517718415229109	-0.2135773192033415	0.04622493509217646	0.001349757080747007	-0.08708814416076592	0.06482303015069525	0.04395212207166102	0.3348547189461704	-25.59619081936258	-17.40621642089939	5.518441754654388	-2.295506665560757	-730.6020881505435	-78.56944483100189	-23.84176250634712	-0.2496795597663139	0.3509459796457634	0.11321727283015	-0.7076593962267838	0.0762942223890908	-0.306694896131686	2.282838916343441	-0.8915491555234234	-0.8915491555233376	-0.09972749367088569	0.001348047430015871	0.0286331004945686	0.09170983222673336	-4.457883930788449e-09	-3.401935357062715e-09	8.086639733607044e-09	4.199160764661119e-09	-1.890554133469706e-08	-7.100310463143362e-11	-1.856331253880888e-09
1.01	0.1035425687819455	-0.01206428127352221	0.9146757378285513	0.3091076878209931	-0.2983542380598078	-0.2635416021695677	-0.9598046427746146	0.3656415621483224	0.3656415621484533	-0.1456172832308636	-0.1745246823291026	-0.01740984963631005	-0.008522214156463188	0.1187214216428235	0.03976532928523837	0.03345341840427649	-0.2841315594676663	0.0246036101763914	-0.06315843225544099	0.02392542698273598	-0.163284862681637	-0.1632848626816341	0.006371994501938549	-1.217736003449193e-06	0.0005533034628035657	0.02612212243818116	-0.21266471218787	0.04615510978631873	0.00131879986066935	-0.08676362580414132	0.06455470491339318	0.04382760428685395	0.3342477240947844	-25.66705610548734	-17.34938440979464	5.520408441160064	-2.276196662320004	-730.3444791478607	-78.563173362885	-23.84053131412485	-0.2597084035271022	0.3505831471344938	0.1094447028642613	-0.683448833832239	0.07849264307545814	-0.3052950638726717	2.288804110307403	-0.8741022734553316	-0.8741022734554392	-0.09112189478081478	-0.00108232591331038	0.03447044696284753	0.09594923657546006	-4.717560231792947e-09	-3.629730306646966e-09	8.607596890001639e-09	4.5391721778775e-09	-1.988328551371277e-08	-2.310775241264641e-10	-1.944846931770342e-09
1.02	0.1047168409972792	-0.01164908045095897	0.915015734275583	0.3062320413239542	-0.2981043144807648	-0.2641884222390854	-0.9594510327413961	0.3639648542159739	0.363964854216156	-0.1455582838880645	-0.1745247022396385	-0.01740266530484653	-0.008256257684208845	0.1161268351793543	0.04327544391384767	0.03454226174135617	-0.2909854841933041	0.02538107580812578	-0.06620294987148119	0.0467973285500604	-0.1720498975556309	-0.1720498975556289	0.005426822597957896	-2.48574103450685e-06	0.000884819409808524	0.0270695971162846	-0.2117521051723875	0.04608528448046605	0.001287842640591232	-0.08643910744751174	0.06428637967609384	0.04370308650205298	0.3336407292434043	-25.74383264272949	-17.29194648535794	5.522768660309563	-2.254795387031852	-730.1810589996159	-78.56471276910565	-23.83900736014862	-0.2571032175424904	0.3516836713801981	0.1088543308835202	-0.6929556792667271	0.07626236717338636	-0.3035511048796981	2.283737582934831	-0.883354563334654	-0.8833545633346717	-0.1009917240403055	0.001697009739843126	0.03013773223953945	0.09221711066940441	-4.913711006739557e-09	-3.770087007028107e-09	9.011333770900884e-09	4.785432510464085e-09	-2.046168273393645e-08	-3.047453543658481e-10	-2.022617431481048e-09
1.03	0.1058649897156776	-0.01119877683954726	0.9153665027633218	0.3032882478696886	-0.2978466266764084	-0.2648656011659935	-0.9588688027924912	0.3622007218134654	0.3622007218135824	-0.1455087841342	-0.1745247301759775	-0.01739214431332247	-0.007980829035692272	0.1134969042913673	0.04678415176255805	0.03560695733679858	-0.2977570360965172	0.0261559336911675	-0.06922953550986304	0.069637945223614	-0.1807667317882053	-0.1807667317882204	0.004471680134917931	-3.300971131099156e-06	0.001219420096698773	0.02801561114568113	-0.2106080365473239	0.04596091916616592	0.00124942524705883	-0.08615537756516992	0.06402972918288873	0.04353950967298742	0.3327530466019222	-25.80611101354209	-17.22067112108721	5.523593749182177	-2.214538757450427	-729.8087907524174	-78.55270706440236	-23.83715473701977	-0.2668386521151994	0.3502963583383861	0.1046011927534813	-0.6668297608166566	0.07801529388764128	-0.3017192462594319	2.282616308424349	-0.8643697590236561	-0.8643697590262192	-0.09299303221977601	-0.0009987138611198935	0.03512697270205415	0.09571493268934458	-5.109213562032514e-09	-3.909551480376563e-09	9.413874526539973e-09	5.030736199370772e-09	-2.103600498519287e-08	-3.775314847148679e-10	-2.100278286516461e-09
1.04	0.1069866589996582	-0.01071341974630406	0.9157277830107905	0.3002772239333987	-0.2975812067342168	-0.2655729473398726	-0.9580584881570791	0.3603497166874709	0.360349716687523	-0.1454688793099244	-0.1745247718495115	-0.01737827616777169	-0.007695955970158753	0.1108309482958437	0.05028614028014525	0.03664461368736808	-0.3044315805984552	0.02692750337493049	-0.07223639926592532	0.09241426585151313	-0.1894244422529735	-0.1894244422530058	0.00350783668052279	-5.233180296050786e-06	0.001554250215120445	0.02895848051966116	-0.209463967922248	0.04583655385187269	0.001211007853521923	-0.08587164768282159	0.06377307868968743	0.04337593284393026	0.3318653639604456	-25.87421162241088	-17.1488002743692	5.524808146515877	-2.17247377646121	-729.529375803603	-78.54852811768068	-23.83493625795411	-0.2643082390497931	0.3503398051555554	0.1034464819089382	-0.6735541990117134	0.0756047273176404	-0.2996067284157876	2.270878373803919	-0.871529809773399	-0.8715298097734422	-0.1027319223113394	0.001473613926171945	0.03018361854581486	0.09158817958610152	-5.30308562882303e-09	-4.086197295723392e-09	9.752871496771943e-09	5.309353805574122e-09	-2.183662534953213e-08	-5.188205782748323e-10	-2.15360929296754e-09
